<mxfile host="65bd71144e">
    <diagram id="nOcKzkcKtDOCdlmjh1c7" name="Page-1">
        <mxGraphModel dx="1584" dy="810" grid="1" gridSize="10" guides="1" tooltips="1" connect="1" arrows="1" fold="1" page="1" pageScale="1" pageWidth="850" pageHeight="1100" background="#ffffff" math="0" shadow="0">
            <root>
                <mxCell id="0"/>
                <mxCell id="1" parent="0"/>
                <mxCell id="225" value="&lt;span style=&quot;color: rgba(0 , 0 , 0 , 0) ; font-family: monospace ; font-size: 0px&quot;&gt;dza&lt;/span&gt;" style="shape=umlFrame;tabPosition=left;html=1;boundedLbl=1;labelInHeader=1;width=80;height=30;" vertex="1" parent="1">
                    <mxGeometry x="150" y="340" width="460" height="170" as="geometry"/>
                </mxCell>
                <mxCell id="226" value="success" style="text;align=center;" vertex="1" parent="225">
                    <mxGeometry width="70" height="20" relative="1" as="geometry">
                        <mxPoint y="60" as="offset"/>
                    </mxGeometry>
                </mxCell>
                <mxCell id="227" value="failure" style="text;align=center;" vertex="1" parent="225">
                    <mxGeometry y="130.00333333333333" width="70" height="21.25" as="geometry"/>
                </mxCell>
                <mxCell id="228" style="edgeStyle=none;html=1;endArrow=none;endFill=0;dashed=1;exitX=0;exitY=0.647;exitDx=0;exitDy=0;exitPerimeter=0;" edge="1" parent="225" source="225">
                    <mxGeometry relative="1" as="geometry">
                        <mxPoint x="458.09523809523813" y="109.99619047619046" as="targetPoint"/>
                        <mxPoint x="20" y="110.64380952380958" as="sourcePoint"/>
                    </mxGeometry>
                </mxCell>
                <mxCell id="2" value="&lt;span style=&quot;color: rgba(0 , 0 , 0 , 0) ; font-family: monospace ; font-size: 0px&quot;&gt;%3CmxGraphModel%3E%3Croot%3E%3CmxCell%20id%3D%220%22%2F%3E%3CmxCell%20id%3D%221%22%20parent%3D%220%22%2F%3E%3CmxCell%20id%3D%222%22%20value%3D%22Client%22%20style%3D%22shape%3DumlActor%3BverticalLabelPosition%3Dbottom%3BverticalAlign%3Dtop%3Bhtml%3D1%3B%22%20vertex%3D%221%22%20parent%3D%221%22%3E%3CmxGeometry%20x%3D%2240%22%20y%3D%2280%22%20width%3D%2230%22%20height%3D%2260%22%20as%3D%22geometry%22%2F%3E%3C%2FmxCell%3E%3C%2Froot%3E%3C%2FmxGraphModel%3E&lt;/span&gt;" style="rounded=0;whiteSpace=wrap;html=1;fillColor=none;strokeColor=#999999;dashed=1;" parent="1" vertex="1">
                    <mxGeometry width="660" height="990" as="geometry"/>
                </mxCell>
                <mxCell id="85" value="Sequence Diagram" style="text;strokeColor=none;fillColor=none;align=left;verticalAlign=middle;spacingLeft=4;spacingRight=4;overflow=hidden;points=[[0,0.5],[1,0.5]];portConstraint=eastwest;rotatable=0;fontColor=#999999;" parent="1" vertex="1">
                    <mxGeometry x="540" y="960" width="120" height="30" as="geometry"/>
                </mxCell>
                <mxCell id="163" style="edgeStyle=none;html=1;endArrow=none;endFill=0;dashed=1;" edge="1" parent="1" source="164">
                    <mxGeometry relative="1" as="geometry">
                        <mxPoint x="55" y="940" as="targetPoint"/>
                    </mxGeometry>
                </mxCell>
                <mxCell id="164" value="" style="shape=umlActor;verticalLabelPosition=bottom;verticalAlign=top;html=1;" vertex="1" parent="1">
                    <mxGeometry x="40" y="20" width="30" height="60" as="geometry"/>
                </mxCell>
                <mxCell id="165" style="edgeStyle=none;html=1;endArrow=block;endFill=1;movable=1;resizable=1;rotatable=1;deletable=1;editable=1;connectable=1;entryX=-0.005;entryY=0.165;entryDx=0;entryDy=0;entryPerimeter=0;" edge="1" parent="1" target="176">
                    <mxGeometry relative="1" as="geometry">
                        <mxPoint x="280" y="110" as="targetPoint"/>
                        <mxPoint x="60" y="110" as="sourcePoint"/>
                    </mxGeometry>
                </mxCell>
                <mxCell id="166" value="View Dashboard" style="edgeLabel;html=1;align=center;verticalAlign=middle;resizable=0;points=[];" vertex="1" connectable="0" parent="165">
                    <mxGeometry x="-0.104" y="2" relative="1" as="geometry">
                        <mxPoint as="offset"/>
                    </mxGeometry>
                </mxCell>
                <mxCell id="169" style="edgeStyle=none;html=1;endArrow=none;endFill=0;startArrow=block;startFill=1;dashed=1;" edge="1" parent="1">
                    <mxGeometry relative="1" as="geometry">
                        <mxPoint x="580" y="150" as="targetPoint"/>
                        <mxPoint x="310" y="150" as="sourcePoint"/>
                    </mxGeometry>
                </mxCell>
                <mxCell id="170" value="Return Current Data" style="edgeLabel;html=1;align=center;verticalAlign=middle;resizable=0;points=[];" vertex="1" connectable="0" parent="169">
                    <mxGeometry x="-0.104" y="2" relative="1" as="geometry">
                        <mxPoint x="19" as="offset"/>
                    </mxGeometry>
                </mxCell>
                <mxCell id="171" value="Module" style="shape=umlLifeline;perimeter=lifelinePerimeter;whiteSpace=wrap;html=1;container=1;collapsible=0;recursiveResize=0;outlineConnect=0;" vertex="1" parent="1">
                    <mxGeometry x="540" y="20" width="100" height="920" as="geometry"/>
                </mxCell>
                <mxCell id="197" style="edgeStyle=none;html=1;endArrow=none;endFill=0;startArrow=block;startFill=1;dashed=1;" edge="1" parent="171">
                    <mxGeometry relative="1" as="geometry">
                        <mxPoint x="40" y="330" as="targetPoint"/>
                        <mxPoint x="-230" y="330" as="sourcePoint"/>
                    </mxGeometry>
                </mxCell>
                <mxCell id="198" value="Return Newly Created Module" style="edgeLabel;html=1;align=center;verticalAlign=middle;resizable=0;points=[];" vertex="1" connectable="0" parent="197">
                    <mxGeometry x="-0.104" y="2" relative="1" as="geometry">
                        <mxPoint x="19" as="offset"/>
                    </mxGeometry>
                </mxCell>
                <mxCell id="246" value="" style="html=1;points=[];perimeter=orthogonalPerimeter;fillColor=#808080;" vertex="1" parent="171">
                    <mxGeometry x="40" y="80" width="20" height="60" as="geometry"/>
                </mxCell>
                <mxCell id="247" value="" style="html=1;points=[];perimeter=orthogonalPerimeter;fillColor=#808080;" vertex="1" parent="171">
                    <mxGeometry x="40" y="170" width="20" height="60" as="geometry"/>
                </mxCell>
                <mxCell id="248" value="" style="html=1;points=[];perimeter=orthogonalPerimeter;fillColor=#808080;" vertex="1" parent="171">
                    <mxGeometry x="40" y="280" width="20" height="200" as="geometry"/>
                </mxCell>
                <mxCell id="249" value="" style="html=1;points=[];perimeter=orthogonalPerimeter;fillColor=#808080;" vertex="1" parent="171">
                    <mxGeometry x="40" y="530" width="20" height="60" as="geometry"/>
                </mxCell>
                <mxCell id="250" value="" style="html=1;points=[];perimeter=orthogonalPerimeter;fillColor=#808080;" vertex="1" parent="171">
                    <mxGeometry x="40" y="680" width="20" height="60" as="geometry"/>
                </mxCell>
                <mxCell id="173" value="Application" style="shape=umlLifeline;perimeter=lifelinePerimeter;whiteSpace=wrap;html=1;container=1;collapsible=0;recursiveResize=0;outlineConnect=0;" vertex="1" parent="1">
                    <mxGeometry x="245" y="20" width="100" height="920" as="geometry"/>
                </mxCell>
                <mxCell id="176" value="" style="html=1;points=[];perimeter=orthogonalPerimeter;fillColor=#CCCCCC;" vertex="1" parent="173">
                    <mxGeometry x="40" y="80" width="20" height="60" as="geometry"/>
                </mxCell>
                <mxCell id="183" value="" style="html=1;points=[];perimeter=orthogonalPerimeter;fillColor=#CCCCCC;" vertex="1" parent="173">
                    <mxGeometry x="40" y="170" width="20" height="70" as="geometry"/>
                </mxCell>
                <mxCell id="186" style="edgeStyle=none;html=1;endArrow=none;endFill=0;startArrow=block;startFill=1;dashed=1;" edge="1" parent="173">
                    <mxGeometry relative="1" as="geometry">
                        <mxPoint x="335" y="220" as="targetPoint"/>
                        <mxPoint x="65" y="220" as="sourcePoint"/>
                    </mxGeometry>
                </mxCell>
                <mxCell id="187" value="Return Current Data" style="edgeLabel;html=1;align=center;verticalAlign=middle;resizable=0;points=[];" vertex="1" connectable="0" parent="186">
                    <mxGeometry x="-0.104" y="2" relative="1" as="geometry">
                        <mxPoint x="19" as="offset"/>
                    </mxGeometry>
                </mxCell>
                <mxCell id="190" style="edgeStyle=none;html=1;endArrow=block;endFill=1;entryX=0;entryY=0.292;entryDx=0;entryDy=0;entryPerimeter=0;" edge="1" parent="173">
                    <mxGeometry relative="1" as="geometry">
                        <mxPoint x="335" y="300.24" as="targetPoint"/>
                        <mxPoint x="60" y="300" as="sourcePoint"/>
                    </mxGeometry>
                </mxCell>
                <mxCell id="191" value="Setup New Module&amp;nbsp;" style="edgeLabel;html=1;align=center;verticalAlign=middle;resizable=0;points=[];" vertex="1" connectable="0" parent="190">
                    <mxGeometry x="-0.104" y="2" relative="1" as="geometry">
                        <mxPoint x="19" as="offset"/>
                    </mxGeometry>
                </mxCell>
                <mxCell id="196" value="" style="html=1;points=[];perimeter=orthogonalPerimeter;fillColor=#CCCCCC;" vertex="1" parent="173">
                    <mxGeometry x="40" y="280" width="20" height="200" as="geometry"/>
                </mxCell>
                <mxCell id="199" value="" style="html=1;points=[];perimeter=orthogonalPerimeter;fillColor=#E6E6E6;" vertex="1" parent="173">
                    <mxGeometry x="45" y="360" width="20" height="60" as="geometry"/>
                </mxCell>
                <mxCell id="205" style="edgeStyle=none;html=1;endArrow=none;endFill=0;startArrow=block;startFill=1;dashed=1;" edge="1" parent="173">
                    <mxGeometry relative="1" as="geometry">
                        <mxPoint x="335.0000000000002" y="470" as="targetPoint"/>
                        <mxPoint x="65.00000000000023" y="470" as="sourcePoint"/>
                    </mxGeometry>
                </mxCell>
                <mxCell id="206" value="Return Error" style="edgeLabel;html=1;align=center;verticalAlign=middle;resizable=0;points=[];" vertex="1" connectable="0" parent="205">
                    <mxGeometry x="-0.104" y="2" relative="1" as="geometry">
                        <mxPoint x="19" as="offset"/>
                    </mxGeometry>
                </mxCell>
                <mxCell id="184" style="edgeStyle=none;html=1;endArrow=block;endFill=1;entryX=0;entryY=0.139;entryDx=0;entryDy=0;entryPerimeter=0;" edge="1" parent="173">
                    <mxGeometry relative="1" as="geometry">
                        <mxPoint x="335" y="190.07999999999993" as="targetPoint"/>
                        <mxPoint x="60" y="190" as="sourcePoint"/>
                    </mxGeometry>
                </mxCell>
                <mxCell id="185" value="Retrieve Module &amp;amp; Accompanying Logs" style="edgeLabel;html=1;align=center;verticalAlign=middle;resizable=0;points=[];" vertex="1" connectable="0" parent="184">
                    <mxGeometry x="-0.104" y="2" relative="1" as="geometry">
                        <mxPoint x="19" as="offset"/>
                    </mxGeometry>
                </mxCell>
                <mxCell id="167" style="edgeStyle=none;html=1;endArrow=block;endFill=1;entryX=0;entryY=0.014;entryDx=0;entryDy=0;entryPerimeter=0;" edge="1" parent="173">
                    <mxGeometry relative="1" as="geometry">
                        <mxPoint x="335" y="100.07999999999993" as="targetPoint"/>
                        <mxPoint x="60" y="100" as="sourcePoint"/>
                    </mxGeometry>
                </mxCell>
                <mxCell id="168" value="Retrieve All Modules" style="edgeLabel;html=1;align=center;verticalAlign=middle;resizable=0;points=[];" vertex="1" connectable="0" parent="167">
                    <mxGeometry x="-0.104" y="2" relative="1" as="geometry">
                        <mxPoint x="19" as="offset"/>
                    </mxGeometry>
                </mxCell>
                <mxCell id="234" value="" style="html=1;points=[];perimeter=orthogonalPerimeter;fillColor=#CCCCCC;" vertex="1" parent="173">
                    <mxGeometry x="40" y="530" width="20" height="60" as="geometry"/>
                </mxCell>
                <mxCell id="232" style="edgeStyle=none;html=1;endArrow=block;endFill=1;entryX=-0.016;entryY=0.639;entryDx=0;entryDy=0;entryPerimeter=0;" edge="1" parent="173">
                    <mxGeometry relative="1" as="geometry">
                        <mxPoint x="334.67999999999984" y="550.0799999999999" as="targetPoint"/>
                        <mxPoint x="60" y="550" as="sourcePoint"/>
                    </mxGeometry>
                </mxCell>
                <mxCell id="233" value="Update Module&amp;nbsp; State" style="edgeLabel;html=1;align=center;verticalAlign=middle;resizable=0;points=[];" vertex="1" connectable="0" parent="232">
                    <mxGeometry x="-0.104" y="2" relative="1" as="geometry">
                        <mxPoint x="19" as="offset"/>
                    </mxGeometry>
                </mxCell>
                <mxCell id="235" style="edgeStyle=none;html=1;endArrow=none;endFill=0;startArrow=block;startFill=1;dashed=1;entryX=-0.014;entryY=0.68;entryDx=0;entryDy=0;entryPerimeter=0;" edge="1" parent="173">
                    <mxGeometry relative="1" as="geometry">
                        <mxPoint x="334.7199999999998" y="579.5999999999999" as="targetPoint"/>
                        <mxPoint x="60.00000000000023" y="580" as="sourcePoint"/>
                    </mxGeometry>
                </mxCell>
                <mxCell id="236" value="Return Updated Module" style="edgeLabel;html=1;align=center;verticalAlign=middle;resizable=0;points=[];" vertex="1" connectable="0" parent="235">
                    <mxGeometry x="-0.104" y="2" relative="1" as="geometry">
                        <mxPoint x="22" as="offset"/>
                    </mxGeometry>
                </mxCell>
                <mxCell id="238" value="" style="html=1;points=[];perimeter=orthogonalPerimeter;fillColor=#CCCCCC;" vertex="1" parent="173">
                    <mxGeometry x="40" y="620" width="20" height="120" as="geometry"/>
                </mxCell>
                <mxCell id="239" style="edgeStyle=none;html=1;endArrow=block;endFill=1;entryX=1;entryY=0.417;entryDx=0;entryDy=0;entryPerimeter=0;" edge="1" parent="173" target="238">
                    <mxGeometry relative="1" as="geometry">
                        <mxPoint x="65.36000000000013" y="674.5400000000002" as="targetPoint"/>
                        <mxPoint x="60" y="625" as="sourcePoint"/>
                        <Array as="points">
                            <mxPoint x="105" y="625"/>
                            <mxPoint x="105" y="670"/>
                        </Array>
                    </mxGeometry>
                </mxCell>
                <mxCell id="240" value="Script to Update&lt;br&gt;Module Value/State" style="edgeLabel;html=1;align=center;verticalAlign=middle;resizable=0;points=[];" vertex="1" connectable="0" parent="239">
                    <mxGeometry x="-0.104" y="2" relative="1" as="geometry">
                        <mxPoint x="8" y="5" as="offset"/>
                    </mxGeometry>
                </mxCell>
                <mxCell id="241" style="edgeStyle=none;html=1;endArrow=block;endFill=1;entryX=-0.016;entryY=0.639;entryDx=0;entryDy=0;entryPerimeter=0;" edge="1" parent="173">
                    <mxGeometry relative="1" as="geometry">
                        <mxPoint x="334.68000000000006" y="690.0799999999999" as="targetPoint"/>
                        <mxPoint x="60" y="690" as="sourcePoint"/>
                    </mxGeometry>
                </mxCell>
                <mxCell id="242" value="Update Module&amp;nbsp;" style="edgeLabel;html=1;align=center;verticalAlign=middle;resizable=0;points=[];" vertex="1" connectable="0" parent="241">
                    <mxGeometry x="-0.104" y="2" relative="1" as="geometry">
                        <mxPoint x="19" as="offset"/>
                    </mxGeometry>
                </mxCell>
                <mxCell id="243" style="edgeStyle=none;html=1;endArrow=none;endFill=0;startArrow=block;startFill=1;dashed=1;entryX=-0.014;entryY=0.68;entryDx=0;entryDy=0;entryPerimeter=0;" edge="1" parent="173">
                    <mxGeometry relative="1" as="geometry">
                        <mxPoint x="334.72" y="720.0000000000001" as="targetPoint"/>
                        <mxPoint x="60.00000000000023" y="720.4" as="sourcePoint"/>
                    </mxGeometry>
                </mxCell>
                <mxCell id="244" value="Return Updated Module" style="edgeLabel;html=1;align=center;verticalAlign=middle;resizable=0;points=[];" vertex="1" connectable="0" parent="243">
                    <mxGeometry x="-0.104" y="2" relative="1" as="geometry">
                        <mxPoint x="22" as="offset"/>
                    </mxGeometry>
                </mxCell>
                <mxCell id="251" style="edgeStyle=none;html=1;endArrow=block;endFill=1;entryX=-0.003;entryY=0.049;entryDx=0;entryDy=0;entryPerimeter=0;" edge="1" parent="173">
                    <mxGeometry relative="1" as="geometry">
                        <mxPoint x="39.93999999999983" y="800" as="targetPoint"/>
                        <mxPoint x="-185" y="800.2" as="sourcePoint"/>
                    </mxGeometry>
                </mxCell>
                <mxCell id="252" value="Create New Type" style="edgeLabel;html=1;align=center;verticalAlign=middle;resizable=0;points=[];" vertex="1" connectable="0" parent="251">
                    <mxGeometry x="-0.104" y="2" relative="1" as="geometry">
                        <mxPoint as="offset"/>
                    </mxGeometry>
                </mxCell>
                <mxCell id="265" style="edgeStyle=none;html=1;endArrow=block;endFill=1;entryX=1.02;entryY=0.869;entryDx=0;entryDy=0;entryPerimeter=0;" edge="1" parent="173" target="253">
                    <mxGeometry relative="1" as="geometry">
                        <mxPoint x="65.36000000000013" y="859.54" as="targetPoint"/>
                        <mxPoint x="60" y="810" as="sourcePoint"/>
                        <Array as="points">
                            <mxPoint x="105" y="810"/>
                            <mxPoint x="105" y="860"/>
                        </Array>
                    </mxGeometry>
                </mxCell>
                <mxCell id="266" value="Enable New Type&lt;br&gt;Select on Module Creation" style="edgeLabel;html=1;align=center;verticalAlign=middle;resizable=0;points=[];" vertex="1" connectable="0" parent="265">
                    <mxGeometry x="-0.104" y="2" relative="1" as="geometry">
                        <mxPoint x="23" y="5" as="offset"/>
                    </mxGeometry>
                </mxCell>
                <mxCell id="181" style="edgeStyle=none;html=1;endArrow=block;endFill=1;entryX=-0.01;entryY=0.141;entryDx=0;entryDy=0;entryPerimeter=0;" edge="1" parent="1" target="183">
                    <mxGeometry relative="1" as="geometry">
                        <mxPoint x="280" y="200" as="targetPoint"/>
                        <mxPoint x="60" y="200" as="sourcePoint"/>
                    </mxGeometry>
                </mxCell>
                <mxCell id="182" value="View Module Details" style="edgeLabel;html=1;align=center;verticalAlign=middle;resizable=0;points=[];" vertex="1" connectable="0" parent="181">
                    <mxGeometry x="-0.104" y="2" relative="1" as="geometry">
                        <mxPoint as="offset"/>
                    </mxGeometry>
                </mxCell>
                <mxCell id="188" style="edgeStyle=none;html=1;endArrow=block;endFill=1;entryX=-0.003;entryY=0.049;entryDx=0;entryDy=0;entryPerimeter=0;" edge="1" parent="1" target="196">
                    <mxGeometry relative="1" as="geometry">
                        <mxPoint x="280" y="310" as="targetPoint"/>
                        <mxPoint x="60" y="310" as="sourcePoint"/>
                    </mxGeometry>
                </mxCell>
                <mxCell id="189" value="Create New Module" style="edgeLabel;html=1;align=center;verticalAlign=middle;resizable=0;points=[];" vertex="1" connectable="0" parent="188">
                    <mxGeometry x="-0.104" y="2" relative="1" as="geometry">
                        <mxPoint as="offset"/>
                    </mxGeometry>
                </mxCell>
                <mxCell id="200" style="edgeStyle=none;html=1;endArrow=block;endFill=1;entryX=1.018;entryY=0.659;entryDx=0;entryDy=0;entryPerimeter=0;" edge="1" parent="1" target="199">
                    <mxGeometry relative="1" as="geometry">
                        <mxPoint x="390" y="450" as="targetPoint"/>
                        <mxPoint x="305" y="370" as="sourcePoint"/>
                        <Array as="points">
                            <mxPoint x="350" y="370"/>
                            <mxPoint x="350" y="420"/>
                        </Array>
                    </mxGeometry>
                </mxCell>
                <mxCell id="201" value="Redirect To New Module&lt;br&gt;Detail Page" style="edgeLabel;html=1;align=center;verticalAlign=middle;resizable=0;points=[];" vertex="1" connectable="0" parent="200">
                    <mxGeometry x="-0.104" y="2" relative="1" as="geometry">
                        <mxPoint x="23" y="5" as="offset"/>
                    </mxGeometry>
                </mxCell>
                <mxCell id="230" style="edgeStyle=none;html=1;endArrow=block;endFill=1;entryX=-0.018;entryY=0.167;entryDx=0;entryDy=0;entryPerimeter=0;" edge="1" parent="1" target="234">
                    <mxGeometry relative="1" as="geometry">
                        <mxPoint x="280" y="560" as="targetPoint"/>
                        <mxPoint x="60" y="560" as="sourcePoint"/>
                    </mxGeometry>
                </mxCell>
                <mxCell id="231" value="Activate/Deactivate Module" style="edgeLabel;html=1;align=center;verticalAlign=middle;resizable=0;points=[];" vertex="1" connectable="0" parent="230">
                    <mxGeometry x="-0.104" y="2" relative="1" as="geometry">
                        <mxPoint as="offset"/>
                    </mxGeometry>
                </mxCell>
                <mxCell id="253" value="" style="html=1;points=[];perimeter=orthogonalPerimeter;fillColor=#CCCCCC;" vertex="1" parent="1">
                    <mxGeometry x="285" y="810" width="20" height="80" as="geometry"/>
                </mxCell>
            </root>
        </mxGraphModel>
    </diagram>
</mxfile>